{
  "accessors": [
    {
      "bufferView": 2,
      "componentType": 5126,
      "count": 4575,
      "max": [
        58.02970504760742,
        231.31182861328125,
        125.99836730957031
      ],
      "min": [
        -58.02971267700195,
        -2.300000051036477e-05,
        -216.45263671875
      ],
      "type": "VEC3"
    },
    {
      "bufferView": 2,
      "byteOffset": 54900,
      "componentType": 5126,
      "count": 4575,
      "max": [
        0.999943733215332,
        0.9999722242355347,
        0.9997287392616272
      ],
      "min": [
        -0.9999458193778992,
        -0.9999566078186035,
        -0.9999831914901733
      ],
      "type": "VEC3"
    },
    {
      "bufferView": 3,
      "componentType": 5126,
      "count": 4575,
      "max": [
        0.9999001026153564,
        0.9999631643295288,
        0.9991632699966431,
        1.0
      ],
      "min": [
        -0.999908447265625,
        -0.9980608820915222,
        -0.9999484419822693,
        -1.0
      ],
      "type": "VEC4"
    },
    {
      "bufferView": 1,
      "componentType": 5126,
      "count": 4575,
      "max": [
        0.9956049919128418,
        0.9960899949073792
      ],
      "min": [
        0.007178999949246645,
        0.0034179999493062496
      ],
      "type": "VEC2"
    },
    {
      "bufferView": 1,
      "byteOffset": 36600,
      "componentType": 5126,
      "count": 4575,
      "max": [
        0.9956049919128418,
        0.9960899949073792
      ],
      "min": [
        0.007178999949246645,
        0.0034179999493062496
      ],
      "type": "VEC2"
    },
    {
      "bufferView": 0,
      "componentType": 5125,
      "count": 15669,
      "type": "SCALAR"
    }
  ],
  "asset": {
    "extras": {
      "author": "Dhruvin743 (https://sketchfab.com/Dhruvin743)",
      "license": "CC-BY-4.0 (http://creativecommons.org/licenses/by/4.0/)",
      "source": "https://sketchfab.com/3d-models/asian-elephant-005e3725b8d9484e94a71aeb9495aea6",
      "title": "Asian Elephant"
    },
    "generator": "Sketchfab-12.73.0",
    "version": "2.0"
  },
  "bufferViews": [
    {
      "buffer": 0,
      "byteLength": 62676,
      "name": "floatBufferViews",
      "target": 34963
    },
    {
      "buffer": 0,
      "byteLength": 73200,
      "byteOffset": 62676,
      "byteStride": 8,
      "name": "floatBufferViews",
      "target": 34962
    },
    {
      "buffer": 0,
      "byteLength": 109800,
      "byteOffset": 135876,
      "byteStride": 12,
      "name": "floatBufferViews",
      "target": 34962
    },
    {
      "buffer": 0,
      "byteLength": 73200,
      "byteOffset": 245676,
      "byteStride": 16,
      "name": "floatBufferViews",
      "target": 34962
    }
  ],
  "buffers": [
    {
      "byteLength": 318876,
      "uri": "scene.bin"
    }
  ],
  "images": [
    {
      "uri": "textures/M_Elephant_baseColor.png"
    },
    {
      "uri": "textures/M_Elephant_normal.png"
    }
  ],
  "materials": [
    {
      "alphaMode": "BLEND",
      "doubleSided": true,
      "name": "M_Elephant",
      "normalTexture": {
        "index": 1
      },
      "pbrMetallicRoughness": {
        "baseColorTexture": {
          "index": 0
        },
        "metallicFactor": 0.0
      }
    }
  ],
  "meshes": [
    {
      "name": "VOX_Elephant_Book_Elephant_V1_M_Elephant_0",
      "primitives": [
        {
          "attributes": {
            "NORMAL": 1,
            "POSITION": 0,
            "TANGENT": 2,
            "TEXCOORD_0": 3,
            "TEXCOORD_1": 4
          },
          "indices": 5,
          "material": 0,
          "mode": 4
        }
      ]
    }
  ],
  "nodes": [
    {
      "children": [
        1
      ],
      "matrix": [
        1.3333333730697632,
        0.0,
        0.0,
        0.0,
        0.0,
        2.9605948205663494e-16,
        -1.3333333730697632,
        0.0,
        0.0,
        1.3333333730697632,
        2.9605948205663494e-16,
        0.0,
        0.0,
        0.0,
        0.0,
        1.0
      ],
      "name": "Sketchfab_model"
    },
    {
      "children": [
        2
      ],
      "matrix": [
        0.009999999776482582,
        0.0,
        0.0,
        0.0,
        0.0,
        0.0,
        0.009999999776482582,
        0.0,
        0.0,
        -0.009999999776482582,
        0.0,
        0.0,
        0.0,
        0.0,
        0.0,
        1.0
      ],
      "name": "ccd9e32e304148eaaddb5a18e16240b6.fbx"
    },
    {
      "children": [
        3
      ],
      "name": "RootNode"
    },
    {
      "children": [
        4
      ],
      "matrix": [
        1.0,
        0.0,
        0.0,
        0.0,
        0.0,
        0.9999999999999867,
        1.6292068494294585e-07,
        0.0,
        0.0,
        -1.6292068494294585e-07,
        0.9999999999999867,
        0.0,
        0.0,
        0.0,
        0.0,
        1.0
      ],
      "name": "VOX_Elephant_Book_Elephant_V1"
    },
    {
      "mesh": 0,
      "name": "VOX_Elephant_Book_Elephant_V1_M_Elephant_0"
    }
  ],
  "samplers": [
    {
      "magFilter": 9729,
      "minFilter": 9987,
      "wrapS": 10497,
      "wrapT": 10497
    }
  ],
  "scene": 0,
  "scenes": [
    {
      "name": "Sketchfab_Scene",
      "nodes": [
        0
      ]
    }
  ],
  "textures": [
    {
      "sampler": 0,
      "source": 0
    },
    {
      "sampler": 0,
      "source": 1
    }
  ]
}
